<svg width="17" height="17" viewBox="0 0 17 17" fill="none" xmlns="http://www.w3.org/2000/svg">
<rect width="16.4686" height="16.6456" rx="3.84128" fill="#FF8935"/>
<path d="M10.2601 6.85456C10.0592 6.43183 9.76811 6.10613 9.38696 5.87744C9.00582 5.64183 8.56231 5.52402 8.05643 5.52402C7.55054 5.52402 7.09317 5.64183 6.68431 5.87744C6.28237 6.10613 5.9636 6.43876 5.72798 6.87535C5.4993 7.305 5.38495 7.80395 5.38495 8.3722C5.38495 8.94045 5.4993 9.43941 5.72798 9.86906C5.9636 10.2987 6.28237 10.6313 6.68431 10.867C7.09317 11.0956 7.55054 11.21 8.05643 11.21C8.76327 11.21 9.34539 10.9986 9.80276 10.5759C10.2601 10.1532 10.5269 9.58147 10.6032 8.86076H7.7134V8.09154H11.6115V8.81918C11.556 9.41515 11.3689 9.96261 11.0501 10.4616C10.7314 10.9536 10.3121 11.3451 9.79236 11.6362C9.27262 11.9203 8.69398 12.0624 8.05643 12.0624C7.38423 12.0624 6.77093 11.9064 6.21654 11.5946C5.66215 11.2758 5.2221 10.8358 4.8964 10.2745C4.57762 9.71314 4.41823 9.07905 4.41823 8.3722C4.41823 7.66535 4.57762 7.03127 4.8964 6.46995C5.2221 5.9017 5.66215 5.46165 6.21654 5.1498C6.77093 4.83103 7.38423 4.67164 8.05643 4.67164C8.82564 4.67164 9.50477 4.86221 10.0938 5.24336C10.6898 5.6245 11.1229 6.16157 11.3932 6.85456H10.2601Z" fill="white"/>
</svg>
