<svg width="10" height="12" viewBox="0 0 10 12" fill="none" xmlns="http://www.w3.org/2000/svg">
<g clip-path="url(#clip0_6002_5240)">
<path d="M5.82443 3.47089V0.531982H1.47723C1.18814 0.531982 0.955566 0.763205 0.955566 1.05061V11.0775C0.955566 11.3649 1.18814 11.5961 1.47723 11.5961H8.78053C9.06962 11.5961 9.30219 11.3649 9.30219 11.0775V3.98952H6.34609C6.05918 3.98952 5.82443 3.75614 5.82443 3.47089ZM7.48615 8.0383L5.39036 10.1063C5.24582 10.2492 5.01237 10.2492 4.86783 10.1063L2.77204 8.0383C2.55142 7.82069 2.70618 7.44706 3.01657 7.44706H4.43333V5.71829C4.43333 5.52726 4.58896 5.37254 4.7811 5.37254H5.47665C5.6688 5.37254 5.82443 5.52726 5.82443 5.71829V7.44706H7.24118C7.55157 7.44706 7.70633 7.82069 7.48615 8.0383ZM9.15004 2.80099L7.02208 0.68325C6.92427 0.586006 6.79168 0.531982 6.65257 0.531982H6.51998V3.29802H9.30219V3.1662C9.30219 3.03006 9.24785 2.89824 9.15004 2.80099Z" fill="white"/>
</g>
<defs>
<clipPath id="clip0_6002_5240">
<rect width="8.34662" height="11.0641" fill="white" transform="translate(0.955566 0.532227)"/>
</clipPath>
</defs>
</svg>
