<svg width="17" height="18" viewBox="0 0 17 18" fill="none" xmlns="http://www.w3.org/2000/svg">
<path d="M2.55244 16.666H2.15727V15.5683H2.55244V16.666ZM2.55244 11.1775H2.15727V12.2752H2.55244V11.1775ZM13.5294 13.3729H13.1342V14.4706H13.5299L13.5294 13.3729ZM2.55244 13.3729H2.15727V14.4706H2.55244V13.3729ZM9.13861 11.1775V10.0798H8.74344V11.1775H9.13861ZM7.49206 11.1775V10.0798H7.09689V11.1775H7.49206ZM10.7852 11.1775V10.0798H10.39V11.1775H10.7852ZM15.7248 15.5683H15.3296V16.666H15.7253L15.7248 15.5683ZM15.7248 11.1775H15.3296V12.2752H15.7253L15.7248 11.1775ZM4.74783 13.3729H4.35266V14.4706H4.74783V13.3729ZM13.5294 15.5683H13.1342V16.666H13.5299L13.5294 15.5683ZM16.8225 10.0798V17.2148C16.8225 17.324 16.7341 17.4124 16.6249 17.4124H1.25716C1.14793 17.4124 1.05957 17.324 1.05957 17.2148V10.0798C1.05957 10.0584 1.06561 10.0386 1.07164 10.0194C1.07329 10.015 1.07164 10.0106 1.07329 10.0062L2.17099 7.26201C2.23081 7.11217 2.47834 7.11217 2.53817 7.26201L3.63586 10.0062C3.63751 10.0106 3.63641 10.015 3.63751 10.0194C3.64409 10.0386 3.65013 10.0584 3.65013 10.0798V12.0776H14.2319V10.0798C14.2319 10.0556 14.238 10.0331 14.2456 10.0117C14.2462 10.0101 14.2456 10.0079 14.2462 10.0062L14.2467 10.0046C14.2473 10.0035 14.2478 10.0024 14.2478 10.0013L15.3433 7.26201C15.4032 7.11217 15.6501 7.11217 15.71 7.26201L16.8055 10.0013C16.806 10.0024 16.8066 10.0035 16.8071 10.0046L16.8077 10.0062C16.8082 10.0079 16.8077 10.0095 16.8082 10.0112C16.817 10.0326 16.8225 10.0556 16.8225 10.0798ZM1.54914 9.88221H3.16111L2.35485 7.86739L1.54914 9.88221ZM3.25496 10.2774H1.45474V17.0172H3.25496V10.2774ZM14.2319 12.4728H3.65013V17.0167H14.2319V12.4728ZM14.7209 9.88221H16.3335L15.5272 7.86739L14.7209 9.88221ZM16.4273 10.2774H14.6271V17.0172H16.4268L16.4273 10.2774ZM15.7248 13.3729H15.3296V14.4706H15.7253L15.7248 13.3729ZM4.74783 15.5683H4.35266V16.666H4.74783V15.5683ZM11.8828 15.5683H11.4877V16.666H11.8834L11.8828 15.5683ZM11.8828 13.3729H11.4877V14.4706H11.8834L11.8828 13.3729ZM6.39437 13.3729H5.9992V14.4706H6.39437V13.3729ZM6.39437 15.5683H5.9992V16.666H6.39437V15.5683ZM8.04091 14.4706C8.04091 13.9744 8.44486 13.5705 8.94102 13.5705C9.43718 13.5705 9.84113 13.9739 9.84113 14.4706V16.666H10.2369V14.4706C10.2369 13.756 9.65562 13.1753 8.94157 13.1753C8.22752 13.1753 7.64629 13.7565 7.64629 14.4706V16.666H8.04146V14.4706H8.04091ZM6.39437 11.1775H5.9992V8.9821C5.9992 8.95136 6.00633 8.92118 6.02005 8.89373L8.74344 3.44697V2.39593V1.29823C8.74344 1.18901 8.8318 1.10065 8.94102 1.10065H10.5876C10.6968 1.10065 10.7852 1.18901 10.7852 1.29823V2.39593C10.7852 2.50515 10.6968 2.59351 10.5876 2.59351H9.13861V3.44697L11.862 8.89373C11.8752 8.92118 11.8828 8.95136 11.8828 8.9821V11.1775H11.4877V9.17968H6.39437V11.1775ZM11.3653 8.78451L8.94102 3.93544L6.51621 8.78451H11.3653ZM10.39 1.49582H9.13861V2.19834H10.39V1.49582Z" fill="white" stroke="white" stroke-width="0.309937"/>
</svg>
