<svg width="20" height="20" viewBox="0 0 20 20" fill="none" xmlns="http://www.w3.org/2000/svg">
<path d="M10 0.0003125C7.35094 0.0003125 4.94438 1.03219 3.15531 2.71375L2.8125 2.37063V1.5625C2.8125 1.51 2.79656 1.46312 2.77375 1.41969C2.76938 1.4 2.75844 1.37875 2.73344 1.35375L1.47125 0.0915625C1.41469 0.0346875 1.33625 0 1.25 0C1.07719 0 0.9375 0.139688 0.9375 0.3125V0.9375H0.3125C0.139688 0.9375 0 1.07719 0 1.25C0 1.33625 0.035 1.41437 0.0915625 1.47094L1.34125 2.72063L1.35438 2.73375C1.37937 2.75875 1.40031 2.76969 1.42 2.77406C1.46313 2.79656 1.51031 2.8125 1.5625 2.8125H2.37063L2.71344 3.15563C1.03219 4.94438 0 7.35094 0 10.0003C0 15.5231 4.47719 20.0003 10 20.0003C15.5228 20.0003 20 15.5231 20 10.0003C20 4.4775 15.5228 0.0003125 10 0.0003125ZM10 18.75C5.1675 18.75 1.25 14.8325 1.25 10C1.25 7.69625 2.14188 5.60187 3.59719 4.03906L4.48094 4.92313C3.25156 6.25844 2.5 8.04125 2.5 10C2.5 14.1422 5.85781 17.5 10 17.5C14.1422 17.5 17.5 14.1422 17.5 10C17.5 5.85781 14.1422 2.5 10 2.5C8.04125 2.5 6.25875 3.25125 4.92281 4.48125L4.03906 3.59719C5.60156 2.14188 7.69625 1.25 10 1.25C14.8325 1.25 18.75 5.1675 18.75 10C18.75 14.8325 14.8325 18.75 10 18.75ZM6.25406 6.69594C5.47594 7.5775 5 8.73156 5 10C5 12.7616 7.23844 15 10 15C12.7616 15 15 12.7616 15 10C15 7.23844 12.7616 5 10 5C8.73156 5 7.5775 5.47594 6.69594 6.25406L5.81219 5.37031C6.92094 4.36656 8.38656 3.75 10 3.75C13.4519 3.75 16.25 6.54813 16.25 10C16.25 13.4519 13.4519 16.25 10 16.25C6.54813 16.25 3.75 13.4519 3.75 10C3.75 8.38656 4.36656 6.92062 5.37031 5.81219L6.25406 6.69594ZM8.02719 8.46906C7.69781 8.89219 7.5 9.4225 7.5 10.0003C7.5 11.3809 8.61938 12.5003 10 12.5003C11.3806 12.5003 12.5 11.3809 12.5 10.0003C12.5 8.61969 11.3806 7.50031 10 7.50031C9.4225 7.50031 8.89219 7.69812 8.46906 8.02719L7.58 7.13812C8.23344 6.585 9.07719 6.25 10 6.25C12.0709 6.25 13.75 7.92906 13.75 10C13.75 12.0709 12.0709 13.75 10 13.75C7.92906 13.75 6.25 12.0709 6.25 10C6.25 9.07719 6.585 8.23344 7.13812 7.58L8.02719 8.46906ZM9.77906 10.2209C9.90125 10.3431 10.0988 10.3431 10.2209 10.2209C10.3431 10.0988 10.3431 9.90125 10.2209 9.77906L9.36875 8.92688C9.55469 8.8175 9.76875 8.75031 10 8.75031C10.6903 8.75031 11.25 9.31 11.25 10.0003C11.25 10.6906 10.6903 11.2503 10 11.2503C9.30969 11.2503 8.75 10.6906 8.75 10.0003C8.75 9.76875 8.81719 9.55469 8.92688 9.36875L9.77906 10.2209Z" fill="white"/>
</svg>
